<svg width="96" height="96" viewBox="0 0 96 96" fill="none" xmlns="http://www.w3.org/2000/svg">
<g filter="url(#filter0_d_7_36131)">
<rect x="24" y="16" width="48" height="48" rx="8" fill="#EA7C69"/>
<path d="M42 30L39 34V48C39 48.5304 39.2107 49.0391 39.5858 49.4142C39.9609 49.7893 40.4696 50 41 50H55C55.5304 50 56.0391 49.7893 56.4142 49.4142C56.7893 49.0391 57 48.5304 57 48V34L54 30H42Z" stroke="white" stroke-linecap="round" stroke-linejoin="round"/>
<path d="M39 34H57" stroke="white" stroke-linecap="round" stroke-linejoin="round"/>
<path d="M52 38C52 39.0609 51.5786 40.0783 50.8284 40.8284C50.0783 41.5786 49.0609 42 48 42C46.9391 42 45.9217 41.5786 45.1716 40.8284C44.4214 40.0783 44 39.0609 44 38" stroke="white" stroke-linecap="round" stroke-linejoin="round"/>
</g>
<defs>
<filter id="filter0_d_7_36131" x="0" y="0" width="96" height="96" filterUnits="userSpaceOnUse" color-interpolation-filters="sRGB">
<feFlood flood-opacity="0" result="BackgroundImageFix"/>
<feColorMatrix in="SourceAlpha" type="matrix" values="0 0 0 0 0 0 0 0 0 0 0 0 0 0 0 0 0 0 127 0" result="hardAlpha"/>
<feOffset dy="8"/>
<feGaussianBlur stdDeviation="12"/>
<feColorMatrix type="matrix" values="0 0 0 0 0.917647 0 0 0 0 0.486275 0 0 0 0 0.411765 0 0 0 0.32 0"/>
<feBlend mode="normal" in2="BackgroundImageFix" result="effect1_dropShadow_7_36131"/>
<feBlend mode="normal" in="SourceGraphic" in2="effect1_dropShadow_7_36131" result="shape"/>
</filter>
</defs>
</svg>
