<svg width="14" height="14" viewBox="0 0 14 14" fill="none" xmlns="http://www.w3.org/2000/svg">
<path d="M3.5 1.1665L1.75 3.49984V11.6665C1.75 11.9759 1.87292 12.2727 2.09171 12.4915C2.3105 12.7103 2.60725 12.8332 2.91667 12.8332H11.0833C11.3928 12.8332 11.6895 12.7103 11.9083 12.4915C12.1271 12.2727 12.25 11.9759 12.25 11.6665V3.49984L10.5 1.1665H3.5Z" stroke="white" stroke-linecap="round" stroke-linejoin="round"/>
<path d="M1.75 3.5H12.25" stroke="white" stroke-linecap="round" stroke-linejoin="round"/>
<path d="M9.33342 5.8335C9.33342 6.45233 9.08758 7.04583 8.65 7.48341C8.21241 7.921 7.61892 8.16683 7.00008 8.16683C6.38124 8.16683 5.78775 7.921 5.35017 7.48341C4.91258 7.04583 4.66675 6.45233 4.66675 5.8335" stroke="white" stroke-linecap="round" stroke-linejoin="round"/>
</svg>
